<?xml version="1.0" encoding="utf-8"?>
<!-- Generator: Adobe Illustrator 22.0.0, SVG Export Plug-In . SVG Version: 6.00 Build 0)  -->
<svg version="1.1" id="Layer_1" xmlns="http://www.w3.org/2000/svg" xmlns:xlink="http://www.w3.org/1999/xlink" x="0px" y="0px"
	 viewBox="0 0 51.2 60" style="enable-background:new 0 0 51.2 60;" xml:space="preserve">
<style type="text/css">
	.st0{fill:none;}
	.st1{fill:#395360;}
	.st2{fill:#FBAA6F;}
	.st3{fill:#DC7F3C;}
	.st4{fill:#BDCFC8;}
	.st5{fill:#809EB0;}
	.st6{fill:#738E9E;}
	.st7{fill:#86A196;}
	.st8{fill:#FFFFFF;}
	.st9{fill:#F4F8FF;}
</style>
<path class="st0" d="M-6.2,0h60v60h-60L-6.2,0z"/>
<path class="st1" d="M16.7,8.1c-4,2.1-6.9,5.8-7.9,10.2c-10,8.3-11.4,23.1-3.1,33.1s23.1,11.4,33.1,3.1s11.4-23.1,3.1-33.1
	c-0.9-1.1-2-2.2-3.1-3.1c-1.2-4.9-4.7-9-9.4-10.8c-0.2-1.2-1-2.2-2.1-2.7c-0.1-2.6-2.3-4.5-4.8-4.4c-1.8,0.1-3.3,1.1-4,2.8
	C17.7,4.7,17.1,6.4,16.7,8.1z"/>
<path class="st2" d="M18,26h12v14H18V26z"/>
<path class="st3" d="M25.9,33.2l-0.1-0.1c-0.6-0.5-0.8-1.3-0.3-2c0.5-0.6,1.3-0.8,2-0.3c-0.5,0.1-0.9,0.4-1.2,0.8
	C25.9,32.1,25.7,32.6,25.9,33.2z M21.4,33.2c0.1-0.5,0-1.1-0.4-1.5c-0.3-0.4-0.7-0.7-1.2-0.8c0.6-0.5,1.5-0.3,2,0.3
	C22.2,31.8,22.1,32.7,21.4,33.2C21.4,33.1,21.4,33.2,21.4,33.2z M28.6,30h0.5L28,34.8l-2.1,6.4h-4.3l-3.2-5.4l1.1-3.2
	c1.1,1.4,1.8,2.3,2.1,2.7c0.5,0.5,2.7,0.5,3.8-0.5C26.6,33.3,27.7,31.7,28.6,30z"/>
<path class="st4" d="M9.7,29H15v-9h-4.1c0.6-4.4,3.5-8.2,7.5-10c0.8-3.3,1.7-5.6,2.7-6.8L21.3,3h0.1c0.3-0.2,0.7-0.4,1.1-0.5
	c1.3-0.2,2.5,0.7,2.7,1.9c0.1,0.7-0.1,1.3-0.5,1.8h-0.1l-0.3,0.3c-0.5,0.5-0.9,1-1.3,1.6c0.8-0.8,1.9-1.4,3-1.5
	c0.2,0,0.5,0.1,0.7,0.2c0.6,0.4,0.9,1.2,0.5,1.8l-0.6,0.6c5.4,1.2,9.4,5.6,10.1,11l0.1,0.9H33v8h4.8l1.8,13.4
	c-4.2,2.6-9.5,3.9-15.9,3.9s-11.5-1.3-15.7-4L9.7,29z M24.9,38.4c2.6-4.3,3.9-6.8,3.9-7.6c0-2.2-3.2-4.1-4.9-4.1S19,28.5,19,30.8
	c0,0.8,1.3,3.4,3.8,7.6c0.2,0.4,0.6,0.6,1.1,0.6C24.3,39,24.7,38.8,24.9,38.4z"/>
<path class="st0" d="M19,31.1h9.6l-1.6,16h-6.4L19,31.1z"/>
<path class="st5" d="M39.8,48.8c-6.6,8.9-19.1,10.7-28,4.1c-1.6-1.2-2.9-2.5-4.1-4.1l0.8-6.1c0.3,0.1,0.7,0.2,1,0.2
	c1.4,0,2.6-1,2.8-2.4v1.2c0,1.6,1.3,2.8,2.8,2.8s2.8-1.3,2.8-2.8v1.6c0.1,1.6,1.4,2.8,3,2.7c1.4-0.1,2.6-1.2,2.7-2.7
	c0,1.6,1.3,2.8,2.8,2.8s2.8-1.3,2.8-2.8v-1.6c0,1.6,1.3,2.8,2.8,2.8c1.5,0,2.8-1.3,2.8-2.8v-1.2C35.3,42,36.5,43,38,43
	c0.3,0,0.7-0.1,1-0.2L39.8,48.8z"/>
<path class="st6" d="M8.3,44.7l0.3-1.9c0.3,0.1,0.7,0.2,1,0.2c1.4,0,2.6-1,2.8-2.4v1.2c0,1.6,1.3,2.8,2.8,2.8s2.8-1.3,2.8-2.8v1.6
	c0.1,1.6,1.4,2.8,3,2.7c1.4-0.1,2.6-1.2,2.7-2.7c0,1.6,1.3,2.8,2.8,2.8s2.8-1.3,2.8-2.8v-1.6c0,1.6,1.3,2.8,2.8,2.8s2.8-1.3,2.8-2.8
	v-1.2C35.3,42,36.5,43,38,43c0.3,0,0.7-0.1,1-0.2l0.2,1.9c-1.4,0.7-3.1,0.1-3.8-1.3c-0.1-0.3-0.2-0.5-0.3-0.8v1.2
	c0,1.6-1.3,2.8-2.8,2.8s-2.8-1.3-2.8-2.8v1.6c0,1.6-1.3,2.8-2.8,2.8s-2.8-1.3-2.8-2.8c-0.1,1.6-1.4,2.8-3,2.7
	c-1.4-0.1-2.6-1.2-2.7-2.7v-1.7c0,1.6-1.3,2.8-2.8,2.8s-2.8-1.3-2.8-2.8v-1.2C12.3,44,11,45,9.6,45C9.1,45,8.7,44.9,8.3,44.7z"/>
<path class="st7" d="M37.8,22.4c-1-2.9-3-4.7-4.7-4.5c-2.2,0.2-2.7,3.8-2.3,8s1.7,7.6,3.9,7.3s4-3.9,3.7-8c-0.1,1.2-0.5,2.3-1.4,2.4
	c-1.1,0.1-1.4-1.2-1.6-2.8s-0.1-3,1-3.1C36.9,21.6,37.5,21.9,37.8,22.4z"/>
<path class="st8" d="M37,21.8c-0.6-1.2-1.5-2-2.4-1.9c-1.5,0.1-1.9,2.6-1.6,5.5s1.2,5.2,2.7,5c1.1-0.1,1.9-1.5,2.2-3.4
	c-0.2,0.3-0.5,0.5-0.9,0.6c-1.1,0.1-1.4-1.2-1.6-2.8s-0.1-3,1-3.1C36.6,21.7,36.8,21.7,37,21.8z"/>
<path class="st7" d="M9.6,22.4c1-2.9,3-4.7,4.7-4.5c2.2,0.2,2.7,3.8,2.3,8s-1.7,7.6-3.9,7.3s-4-3.9-3.7-8c0.1,1.2,0.5,2.3,1.4,2.4
	c1.1,0.1,1.4-1.2,1.6-2.8s0.1-3-1-3.1C10.4,21.6,9.9,21.9,9.6,22.4z"/>
<path class="st8" d="M10.4,21.8c0.6-1.2,1.5-2,2.4-1.9c1.5,0.1,1.9,2.6,1.6,5.5s-1.2,5.2-2.7,5c-1.1-0.1-1.9-1.5-2.2-3.4
	c0.2,0.3,0.5,0.5,0.9,0.6c1.1,0.1,1.4-1.2,1.6-2.8s0.1-3-1-3.1C10.8,21.6,10.5,21.7,10.4,21.8z"/>
<path class="st9" d="M19,28.6v-0.7c0-2.5,1.2-5.3,4.9-5.3s4.9,2.8,4.9,5.3c0,0.3,0,0.7-0.1,1c-0.8-1.4-2.3-2.2-4.8-2.2
	C21.4,26.8,19.9,27.5,19,28.6z"/>
<path class="st7" d="M26.5,9.2L23.3,9l3.9-1.2C27.3,8.4,27,8.9,26.5,9.2z M23,8.1l-1.3,1c0.8-1.2,1.5-2.4,2-3.7
	C24,4.6,24.1,3.7,24,2.8c0.8,0.4,1.3,1.3,1.2,2.2c-0.1,0.6-0.3,1.1-0.8,1.5C23.9,7,23.4,7.6,23,8.1z"/>
</svg>
