<svg width="51" height="51" viewBox="0 0 51 51" fill="none" xmlns="http://www.w3.org/2000/svg">
<path d="M25.5 49.5004C38.7549 49.5004 49.5 38.7552 49.5 25.5004C49.5 12.2455 38.7549 1.50037 25.5 1.50037C12.2452 1.50037 1.5 12.2455 1.5 25.5004C1.5 38.7552 12.2452 49.5004 25.5 49.5004Z" stroke="#101010" stroke-width="3"/>
<path d="M15.4249 30.5095C15.4246 30.3922 15.4685 30.279 15.5479 30.1925L24.7399 19.9433C24.7837 19.8942 24.8372 19.8548 24.897 19.8274C24.9568 19.8 25.0217 19.7854 25.0874 19.7844C25.1532 19.7833 25.2185 19.7959 25.2791 19.8214C25.3398 19.8469 25.3945 19.8846 25.4399 19.9323L35.1958 30.1825C35.2821 30.2753 35.3284 30.3983 35.3249 30.5249C35.3213 30.6516 35.2682 30.7717 35.1768 30.8595C35.0841 30.9458 34.9611 30.9921 34.8345 30.9886C34.7078 30.985 34.5877 30.9319 34.4998 30.8405L25.1069 20.9673L16.2589 30.8285C16.2172 30.8753 16.1667 30.9134 16.1103 30.9407C16.0539 30.9679 15.9926 30.9837 15.9301 30.9871C15.8675 30.9905 15.8049 30.9816 15.7458 30.9607C15.6867 30.9398 15.6324 30.9075 15.5859 30.8655C15.5347 30.8215 15.4939 30.7668 15.4661 30.7053C15.4383 30.6438 15.4242 30.577 15.4249 30.5095Z" fill="black" stroke="black" stroke-width="3"/>
</svg>
