<svg xmlns="http://www.w3.org/2000/svg" width="16.013" height="16.007" viewBox="0 0 16.013 16.007">
  <path id="Trazado_375" data-name="Trazado 375" d="M245.086,1902.87a3.46,3.46,0,0,1-.859,1.21,3.385,3.385,0,0,1-1.292.72,6.991,6.991,0,0,1-1.933.2h-7.2a7,7,0,0,1-1.934-.2,3.388,3.388,0,0,1-1.291-.72,3.46,3.46,0,0,1-.859-1.21,6.287,6.287,0,0,1-.316-2.27v-7.2a6.309,6.309,0,0,1,.316-2.27,3.347,3.347,0,0,1,.859-1.2,3.549,3.549,0,0,1,1.291-.73,7.4,7.4,0,0,1,1.934-.2H241a7.4,7.4,0,0,1,1.933.2,3.407,3.407,0,0,1,1.292.73,3.347,3.347,0,0,1,.859,1.2,6.265,6.265,0,0,1,.316,2.27v7.2A6.265,6.265,0,0,1,245.086,1902.87Zm-6.524-4.67a1.811,1.811,0,0,0-2.319,0,.712.712,0,0,0-.212.46,5.97,5.97,0,0,0,.025,1.21c.042.49.121,1.14.225,1.81a6.825,6.825,0,0,0,.187.91,1.069,1.069,0,0,0,.391.41,1.06,1.06,0,0,0,1.087,0,1.074,1.074,0,0,0,.39-.41,6.831,6.831,0,0,0,.188-.91c.1-.67.183-1.32.224-1.81a5.971,5.971,0,0,0,.026-1.21.712.712,0,0,0-.212-.46Zm-2.467-2.26a1.334,1.334,0,0,0,.22.73,1.284,1.284,0,0,0,.588.48,1.31,1.31,0,0,0,.757.08,1.328,1.328,0,0,0,.671-.36,1.31,1.31,0,0,0,.284-1.43,1.307,1.307,0,0,0-1.211-.81,1.43,1.43,0,0,0-.5.1,1.362,1.362,0,0,0-.709.71,1.331,1.331,0,0,0-.1.5Zm1.293-5.17a5.629,5.629,0,0,0-1.846,10.94c.012,0,.026.01.039,0a.046.046,0,0,0,.035-.01.114.114,0,0,0,.022-.03.088.088,0,0,0,0-.04c-.029-.19-.056-.39-.082-.58a.213.213,0,0,0-.036-.09.145.145,0,0,0-.077-.06,4.909,4.909,0,1,1,5.054-8.31,4.915,4.915,0,0,1,1.261,6.07,4.905,4.905,0,0,1-2.4,2.24.186.186,0,0,0-.113.15c-.025.19-.052.39-.082.58a.088.088,0,0,0,0,.04.12.12,0,0,0,.023.03.044.044,0,0,0,.035.01c.013.01.026,0,.038,0a5.63,5.63,0,0,0,1.759-9.62,5.681,5.681,0,0,0-3.637-1.32Zm-.1,2.59a3.041,3.041,0,0,1,2.934,1.86,3.07,3.07,0,0,1,.169,1.82,3,3,0,0,1-.9,1.58.377.377,0,0,0-.057.09.211.211,0,0,0-.017.1,5.255,5.255,0,0,1-.007.64.07.07,0,0,0,.009.04.161.161,0,0,0,.029.03.056.056,0,0,0,.039.01.054.054,0,0,0,.039-.01,3.771,3.771,0,0,0,.117-6.15,3.77,3.77,0,1,0-4.36,6.15.081.081,0,0,0,.078,0,.129.129,0,0,0,.028-.03.057.057,0,0,0,.009-.04,5.255,5.255,0,0,1-.006-.64.225.225,0,0,0-.016-.1.213.213,0,0,0-.058-.08,3.115,3.115,0,0,1-.882-1.53,3.037,3.037,0,0,1,2.847-3.74Z" transform="translate(-229.396 -1888.997)" fill="#fff"/>
</svg>
