<svg width="54" height="22" viewBox="0 0 54 22" fill="none" xmlns="http://www.w3.org/2000/svg">
<path d="M16.1424 8.97305C16.9214 8.92026 17.7027 9.03059 18.4366 9.29696C19.1705 9.56334 19.8407 9.97991 20.4044 10.52C21.4636 11.7272 22.0006 13.3054 21.8974 14.908C21.9999 16.5097 21.4629 18.0866 20.4044 19.293C19.8407 19.8332 19.1705 20.2497 18.4366 20.5161C17.7027 20.7825 16.9214 20.8928 16.1424 20.84H11.1074V8.97305H16.1424ZM15.8364 18.504C16.2475 18.5405 16.6612 18.4778 17.043 18.3212C17.4248 18.1646 17.7634 17.9186 18.0304 17.604C18.5511 16.8041 18.7969 15.8562 18.7304 14.904C18.7983 13.9583 18.5523 13.0167 18.0304 12.225C17.7664 11.9059 17.4288 11.6556 17.0466 11.4959C16.6644 11.3361 16.2491 11.2717 15.8364 11.308H14.2004V18.501L15.8364 18.504ZM29.0504 8.97305C29.8294 8.92033 30.6107 9.03068 31.3446 9.29705C32.0784 9.56342 32.7487 9.97996 33.3124 10.52C34.3716 11.7272 34.9086 13.3054 34.8054 14.908C34.9077 16.5097 34.3708 18.0866 33.3124 19.293C32.7487 19.8331 32.0784 20.2497 31.3446 20.516C30.6107 20.7824 29.8294 20.8928 29.0504 20.84H24.0154V8.97305H29.0504ZM28.7444 18.504C29.1555 18.5405 29.5692 18.4778 29.951 18.3212C30.3328 18.1646 30.6714 17.9186 30.9384 17.604C31.4591 16.8041 31.7049 15.8562 31.6384 14.904C31.7063 13.9583 31.4603 13.0167 30.9384 12.225C30.6744 11.9059 30.3368 11.6556 29.9546 11.4959C29.5724 11.3361 29.1571 11.2717 28.7444 11.308H27.1084V18.501L28.7444 18.504ZM38.9444 20.842L35.5264 8.97305H38.8174L40.8314 18.342L42.9534 8.97305H45.7584L47.9344 18.324L49.9124 8.97305H53.0954L49.6604 20.842H46.2974L44.8974 15.088L44.3584 12.188H44.3224L43.8014 15.088L42.4164 20.842H38.9444Z" fill="white"/>
<path fill-rule="evenodd" clip-rule="evenodd" d="M7.13022 6.37607V21.4031L0.803223 15.0761V0.0490723H15.8302L22.1572 6.37607H7.13022Z" fill="white"/>
</svg>
