<svg width="94" height="39" viewBox="0 0 94 39" fill="none" xmlns="http://www.w3.org/2000/svg">
<path d="M27.3929 16.1985C30.7042 16.1985 33.2357 17.123 34.9875 18.9719C36.7607 20.8209 37.6472 23.4438 37.6472 26.8408C37.6472 30.2377 36.7593 32.8607 34.9835 34.7096C33.2317 36.5586 30.7015 37.4831 27.3929 37.4831H18.4204V16.1985H27.3929ZM26.8482 33.2906C27.5798 33.3554 28.3162 33.2428 28.9957 32.9623C29.6752 32.6817 30.278 32.2414 30.7536 31.6782C31.6813 30.2452 32.12 28.5471 32.0034 26.8408C32.1238 25.1443 31.6845 23.4552 30.7536 22.0356C30.2836 21.4637 29.6826 21.0153 29.0023 20.7288C28.322 20.4423 27.5828 20.3264 26.8482 20.3909H23.9281V33.2906H26.8482ZM50.39 16.1985C53.7013 16.1985 56.2328 17.123 57.9846 18.9719C59.7544 20.8209 60.6393 23.4438 60.6393 26.8408C60.6393 30.2377 59.7527 32.8607 57.9796 34.7096C56.2311 36.5586 53.7013 37.4831 50.39 37.4831H41.4125V16.1985H50.39ZM49.8452 33.2906C50.5769 33.3554 51.3133 33.2428 51.9928 32.9623C52.6723 32.6817 53.2751 32.2414 53.7507 31.6782C54.6784 30.2452 55.1171 28.5471 55.0004 26.8408C55.1209 25.1443 54.6816 23.4552 53.7507 22.0356C53.2807 21.4637 52.6797 21.0153 51.9994 20.7288C51.3191 20.4423 50.5799 20.3264 49.8452 20.3909H46.9292V33.2906H49.8452ZM68.0186 37.4831L61.9301 16.1985H67.7943L71.3833 33.0004L75.1595 16.1985H80.1665L84.0439 32.9681L87.5689 16.1985H93.2408L87.1172 37.4831H81.1249L78.6214 27.1633L77.66 21.9711H77.5959L76.6666 27.1633L74.2032 37.4831H68.0186Z" fill="white"/>
<path fill-rule="evenodd" clip-rule="evenodd" d="M11.3297 11.5416V38.4909L0.0549316 27.1442V0.194824H26.8333L38.108 11.5416H11.3297Z" fill="white"/>
</svg>
