<svg width="94" height="45" viewBox="0 0 94 45" fill="none" xmlns="http://www.w3.org/2000/svg">
<path d="M27.2961 15.88C30.6028 15.88 33.1308 16.7973 34.8801 18.632C36.6508 20.4667 37.5361 23.0693 37.5361 26.44C37.5361 29.8107 36.6508 32.4133 34.8801 34.248C33.1308 36.0827 30.6028 37 27.2961 37H18.3361V15.88H27.2961ZM26.7521 32.84C28.5441 32.84 29.8454 32.3067 30.6561 31.24C31.4881 30.152 31.9041 28.552 31.9041 26.44C31.9041 24.328 31.4881 22.7387 30.6561 21.672C29.8454 20.584 28.5441 20.04 26.7521 20.04H23.8401V32.84H26.7521ZM50.2649 15.88C53.5715 15.88 56.0995 16.7973 57.8489 18.632C59.6195 20.4667 60.5049 23.0693 60.5049 26.44C60.5049 29.8107 59.6195 32.4133 57.8489 34.248C56.0995 36.0827 53.5715 37 50.2649 37H41.3049V15.88H50.2649ZM49.7209 32.84C51.5129 32.84 52.8142 32.3067 53.6249 31.24C54.4569 30.152 54.8729 28.552 54.8729 26.44C54.8729 24.328 54.4569 22.7387 53.6249 21.672C52.8142 20.584 51.5129 20.04 49.7209 20.04H46.8089V32.84H49.7209ZM67.8689 37L61.7889 15.88H67.6449L71.2289 32.552L75.0049 15.88H79.9969L83.8689 32.52L87.3889 15.88H93.0529L86.9409 37H80.9569L78.4609 26.76L77.5009 21.608H77.4369L76.5089 26.76L74.0449 37H67.8689Z" fill="white"/>
<path fill-rule="evenodd" clip-rule="evenodd" d="M11.2593 11.2593V38L0 26.7407V0H1.14441e-05H26.7408L38 11.2593H11.2593Z" fill="white"/>
</svg>
